<?xml version="1.0" encoding="utf-8"?>
<!-- Generator: Adobe Illustrator 16.0.3, SVG Export Plug-In . SVG Version: 6.00 Build 0)  -->
<!DOCTYPE svg PUBLIC "-//W3C//DTD SVG 1.1//EN" "http://www.w3.org/Graphics/SVG/1.1/DTD/svg11.dtd">
<svg version="1.1" id="Layer_1" xmlns="http://www.w3.org/2000/svg" xmlns:xlink="http://www.w3.org/1999/xlink" x="0px" y="0px"
	 width="100px" height="100px" viewBox="0 0 100 100" enable-background="new 0 0 100 100" xml:space="preserve">
<g>
	<path d="M80.583,39.494H19.417c-0.699,0-1.266,0.565-1.266,1.264v43.916c0,0.698,0.567,1.264,1.266,1.264h61.165
		c0.703,0,1.268-0.565,1.268-1.264V40.758C81.85,40.059,81.285,39.494,80.583,39.494z"/>
	<g>
		<path d="M80.583,19.72h-6.519v3.051c0,3.235-1.846,6.69-7.03,6.69s-7.031-3.455-7.031-6.69V19.72H40.08v3.051
			c0,3.235-1.845,6.69-7.03,6.69c-5.186,0-7.036-3.455-7.036-6.69V19.72h-6.597c-0.699,0-1.266,0.565-1.266,1.264v12.859
			c0,0.7,0.567,1.266,1.266,1.266h61.165c0.703,0,1.268-0.566,1.268-1.266V20.984C81.85,20.285,81.285,19.72,80.583,19.72z"/>
		<path d="M33.05,25.376c2.095,0,2.946-0.755,2.946-2.606v-3.05v-3.05c0-1.853-0.851-2.607-2.946-2.607
			c-2.101,0-2.952,0.755-2.952,2.607v3.05v3.051C30.098,24.622,30.949,25.376,33.05,25.376z"/>
		<path d="M67.033,25.376c2.095,0,2.945-0.755,2.945-2.606v-3.05v-3.05c0-1.853-0.851-2.607-2.945-2.607
			c-2.102,0-2.946,0.755-2.946,2.607v3.05v3.051C64.086,24.622,64.932,25.376,67.033,25.376z"/>
	</g>
</g>
</svg>
